<svg version="1.1" id="Layer_1" xmlns="http://www.w3.org/2000/svg" xmlns:xlink="http://www.w3.org/1999/xlink" x="0px" y="0px"
	 width="100%" viewBox="0 0 844 844" enable-background="new 0 0 844 844" xml:space="preserve">
<path fill="#1C2E4A" opacity="1.000000" stroke="none"
	d="
M843.000000,845.000000
	C562.441650,845.000000 281.883270,845.000000 1.000000,845.000000
	C1.000000,760.974426 1.000000,676.948486 1.375709,592.460938
	C2.497618,591.942932 3.243818,591.886475 4.456467,591.886353
	C52.847816,591.942749 100.772713,591.942749 149.145416,591.942749
	C149.145416,641.967957 149.145416,691.373413 149.145416,740.748535
	C280.633179,740.748535 411.670563,740.748535 542.881653,740.748535
	C542.961243,739.555359 543.065430,738.750061 543.061340,737.945251
	C542.964661,718.973328 542.769836,700.001526 542.769653,681.029663
	C542.769348,649.720337 542.951355,618.410950 542.948059,587.101624
	C542.944946,557.463562 542.656311,527.824463 542.867859,498.188507
	C542.902344,493.354492 541.224304,490.845978 537.420349,488.325592
	C499.981293,463.519470 462.644958,438.558105 425.308167,413.597900
	C388.809174,389.197754 352.347809,364.741364 315.862091,340.321320
	C285.324310,319.882324 254.748184,299.500153 224.302414,278.925079
	C222.586334,277.765350 220.902069,275.088440 220.886261,273.104279
	C220.664536,245.285126 220.735779,217.463638 220.735779,189.269501
	C337.624146,189.269501 454.463104,189.269501 571.893433,189.269501
	C571.893433,195.424530 571.893433,201.207291 571.784180,207.320892
	C571.747986,208.104584 571.820984,208.557419 571.766602,209.463196
	C571.730347,216.607681 571.821411,223.299210 571.801880,230.360199
	C571.764771,231.489578 571.838318,232.249512 571.789551,233.463654
	C571.739319,251.274734 571.811279,268.631592 571.770386,286.358093
	C571.733765,287.489044 571.810059,288.250305 571.761169,289.333252
	C571.719238,290.099457 571.802429,290.544006 571.772339,291.428406
	C571.730896,294.583099 571.802673,297.297943 571.742554,300.462036
	C571.705627,305.604034 571.800720,310.296844 571.784485,315.400726
	C571.133728,319.773346 573.782288,318.868195 576.322021,318.735687
	C577.109863,318.768372 577.564087,318.703949 578.478333,318.726868
	C666.858215,318.814178 754.778015,318.814178 843.000000,318.814178
	C843.000000,494.509430 843.000000,669.754700 843.000000,845.000000
M670.500000,738.999451
	C688.936401,738.999451 707.372864,738.999451 725.735718,738.999451
	C725.735718,628.089172 725.735718,518.044006 725.735718,408.189636
	C701.759949,408.189636 678.189514,408.189636 654.201538,408.189636
	C654.201538,487.301025 654.201538,566.020081 654.201538,645.174194
	C638.685181,645.174194 623.585266,645.174194 608.340210,645.174194
	C608.176025,646.201294 607.989075,646.826416 607.988708,647.451599
	C607.971313,676.616089 608.029663,705.780823 607.892883,734.944641
	C607.875549,738.651917 609.671570,738.916870 612.510071,738.914185
	C631.506714,738.895996 650.503357,738.961243 670.500000,738.999451
z"/>
<path fill="#1C2E4A" opacity="1.000000" stroke="none"
	d="
M1.000000,522.000000
	C1.000000,348.379150 1.000000,174.758316 1.000000,1.068738
	C282.213257,1.068738 563.426575,1.068738 845.000000,1.068738
	C845.000000,82.691223 845.000000,164.382980 844.665161,246.538315
	C843.888977,247.053879 843.447632,247.105865 842.542664,247.082275
	C785.496155,247.006683 728.913208,247.006683 671.821106,247.006683
	C671.821106,202.763641 671.821106,159.056992 671.821106,115.421417
	C491.290741,115.421417 311.271332,115.421417 131.058777,115.421417
	C131.058777,227.978714 131.058777,340.196106 131.058777,452.889374
	C147.189255,452.889374 163.128372,452.889374 179.526855,452.928894
	C191.789825,452.978912 203.593948,452.926025 215.396790,453.026703
	C221.336609,453.077393 227.274033,453.407043 233.212540,453.610565
	C233.475037,459.524658 233.910873,465.437164 233.964386,471.353149
	C234.080154,484.153290 234.000015,496.955200 234.000031,509.756409
	C234.000046,521.778809 234.000046,521.778076 222.257065,522.034363
	C221.758911,522.045227 221.261581,522.093018 220.311768,522.080017
	C170.385681,521.980652 120.911690,521.884216 71.437698,521.887390
	C48.954781,521.888794 26.471867,522.087341 3.623120,522.108521
	C2.504859,522.013733 1.752429,522.006836 1.000000,522.000000
z"/>
<path fill="#FFFFFF" opacity="1.000000" stroke="none"
	d="
M843.006226,247.157837
	C843.447632,247.105865 843.888977,247.053879 844.665161,247.000946
	C845.000000,444.833344 845.002197,642.666687 844.958679,840.500000
	C844.958374,842.000061 844.333374,843.500000 843.500000,845.000000
	C843.000000,669.754700 843.000000,494.509430 843.000000,318.814178
	C754.778015,318.814178 666.858215,318.814178 578.652466,318.391846
	C580.431580,317.647980 582.496338,317.046478 584.561523,317.045288
	C668.326477,316.997620 752.091431,317.004608 835.856384,317.002777
	C842.988525,317.002594 842.994629,316.996674 842.996643,309.989868
	C843.002686,289.045868 843.003418,268.101837 843.006226,247.157837
z"/>
<path fill="#FFFFFF" opacity="1.000000" stroke="none"
	d="
M1.000000,522.468628
	C1.752429,522.006836 2.504859,522.013733 3.624232,522.564697
	C3.990788,546.015869 3.990402,568.922913 3.990017,591.830017
	C3.243818,591.886475 2.497618,591.942932 1.375709,591.999634
	C1.000000,568.979126 1.000000,545.958191 1.000000,522.468628
z"/>
<path fill="#FAFAF6" opacity="1.000000" stroke="none"
	d="
M4.456467,591.886353
	C3.990402,568.922913 3.990788,546.015869 3.990063,522.652588
	C26.471867,522.087341 48.954781,521.888794 71.437698,521.887390
	C120.911690,521.884216 170.385681,521.980652 220.333130,522.540039
	C220.806610,576.451050 220.806610,629.858459 220.806610,683.400879
	C311.484528,683.400879 401.481110,683.400879 491.547699,683.400879
	C491.692596,682.388733 491.866699,681.743164 491.865784,681.097839
	C491.803223,638.283508 491.772217,595.468811 491.505402,552.655701
	C491.493073,550.678772 489.830841,548.025757 488.132324,546.854553
	C474.722534,537.607666 461.104584,528.663147 447.574066,519.590759
	C400.640167,488.120941 353.730988,456.614288 306.782867,425.165771
	C270.321106,400.741669 233.821762,376.373627 197.322037,352.006256
	C191.582840,348.174805 185.752975,344.479187 179.067490,340.137909
	C179.067490,378.432404 179.067490,415.660889 179.067490,452.889374
	C163.128372,452.889374 147.189255,452.889374 131.058777,452.889374
	C131.058777,340.196106 131.058777,227.978714 131.058777,115.421417
	C311.271332,115.421417 491.290741,115.421417 671.821106,115.421417
	C671.821106,159.056992 671.821106,202.763641 671.821106,247.006683
	C728.913208,247.006683 785.496155,247.006683 842.542664,247.082260
	C843.003418,268.101837 843.002686,289.045868 842.996643,309.989868
	C842.994629,316.996674 842.988525,317.002594 835.856384,317.002777
	C752.091431,317.004608 668.326477,316.997620 584.561523,317.045288
	C582.496338,317.046478 580.431580,317.647980 578.192383,318.304504
	C577.564087,318.703949 577.109863,318.768372 576.212646,318.443115
	C574.478271,317.032166 573.187012,316.010895 571.895752,314.989624
	C571.800720,310.296844 571.705627,305.604034 572.116211,300.346100
	C574.378174,296.682526 575.498108,293.637421 571.885620,290.988586
	C571.802429,290.544006 571.719238,290.099457 572.081787,289.261353
	C572.312744,287.908020 572.097961,286.948242 571.883179,285.988464
	C571.811279,268.631592 571.739319,251.274734 572.107605,233.391205
	C572.336060,231.906616 572.124207,230.948685 571.912415,229.990753
	C571.821411,223.299210 571.730347,216.607681 572.046265,209.408264
	C572.748962,208.584839 573.044678,208.269287 573.340454,207.953735
	C572.858093,207.632507 572.375793,207.311264 571.893433,206.990036
	C571.893433,201.207291 571.893433,195.424530 571.893433,189.269501
	C454.463104,189.269501 337.624146,189.269501 220.735779,189.269501
	C220.735779,217.463638 220.664536,245.285126 220.886261,273.104279
	C220.902069,275.088440 222.586334,277.765350 224.302414,278.925079
	C254.748184,299.500153 285.324310,319.882324 315.862091,340.321320
	C352.347809,364.741364 388.809174,389.197754 425.308167,413.597900
	C462.644958,438.558105 499.981293,463.519470 537.420349,488.325592
	C541.224304,490.845978 542.902344,493.354492 542.867859,498.188507
	C542.656311,527.824463 542.944946,557.463562 542.948059,587.101624
	C542.951355,618.410950 542.769348,649.720337 542.769653,681.029663
	C542.769836,700.001526 542.964661,718.973328 543.061340,737.945251
	C543.065430,738.750061 542.961243,739.555359 542.881653,740.748535
	C411.670563,740.748535 280.633179,740.748535 149.145416,740.748535
	C149.145416,691.373413 149.145416,641.967957 149.145416,591.942749
	C100.772713,591.942749 52.847816,591.942749 4.456467,591.886353
z"/>
<path fill="#FFFFFF" opacity="1.000000" stroke="none"
	d="
M670.000000,738.999451
	C650.503357,738.961243 631.506714,738.895996 612.510071,738.914185
	C609.671570,738.916870 607.875549,738.651917 607.892883,734.944641
	C608.029663,705.780823 607.971313,676.616089 607.988708,647.451599
	C607.989075,646.826416 608.176025,646.201294 608.340210,645.174194
	C623.585266,645.174194 638.685181,645.174194 654.201538,645.174194
	C654.201538,566.020081 654.201538,487.301025 654.201538,408.189636
	C678.189514,408.189636 701.759949,408.189636 725.735718,408.189636
	C725.735718,518.044006 725.735718,628.089172 725.735718,738.999451
	C707.372864,738.999451 688.936401,738.999451 670.000000,738.999451
z"/>
<path fill="#FFFFFF" opacity="1.000000" stroke="none"
	d="
M571.772339,291.428406
	C575.498108,293.637421 574.378174,296.682526 572.248169,299.896851
	C571.802673,297.297943 571.730896,294.583099 571.772339,291.428406
z"/>
<path fill="#FFFFFF" opacity="1.000000" stroke="none"
	d="
M571.784424,315.400726
	C573.187012,316.010895 574.478271,317.032166 575.878906,318.346008
	C573.782288,318.868195 571.133728,319.773346 571.784424,315.400726
z"/>
<path fill="#FFFFFF" opacity="1.000000" stroke="none"
	d="
M571.801880,230.360199
	C572.124207,230.948685 572.336060,231.906616 572.229858,232.936996
	C571.838318,232.249512 571.764771,231.489578 571.801880,230.360199
z"/>
<path fill="#FFFFFF" opacity="1.000000" stroke="none"
	d="
M571.770325,286.358093
	C572.097961,286.948242 572.312744,287.908020 572.206909,288.939697
	C571.810059,288.250305 571.733765,287.489044 571.770325,286.358093
z"/>
<path fill="#FFFFFF" opacity="1.000000" stroke="none"
	d="
M571.784180,207.320892
	C572.375793,207.311264 572.858093,207.632507 573.340454,207.953735
	C573.044678,208.269287 572.748962,208.584839 572.173584,208.955322
	C571.820984,208.557419 571.747986,208.104584 571.784180,207.320892
z"/>
<path fill="#6B1C2E" opacity="1.000000" stroke="none"
	d="
M179.526855,452.928894
	C179.067490,415.660889 179.067490,378.432404 179.067490,340.137909
	C185.752975,344.479187 191.582840,348.174805 197.322037,352.006256
	C233.821762,376.373627 270.321106,400.741669 306.782867,425.165771
	C353.730988,456.614288 400.640167,488.120941 447.574066,519.590759
	C461.104584,528.663147 474.722534,537.607666 488.132324,546.854553
	C489.830841,548.025757 491.493073,550.678772 491.505402,552.655701
	C491.772217,595.468811 491.803223,638.283508 491.865784,681.097839
	C491.866699,681.743164 491.692596,682.388733 491.547699,683.400879
	C401.481110,683.400879 311.484528,683.400879 220.806610,683.400879
	C220.806610,629.858459 220.806610,576.451050 220.785248,522.583618
	C221.261581,522.093018 221.758911,522.045227 222.257065,522.034363
	C234.000046,521.778076 234.000046,521.778809 234.000031,509.756409
	C234.000015,496.955200 234.080154,484.153290 233.964386,471.353149
	C233.910873,465.437164 233.475037,459.524658 233.212540,453.610565
	C227.274033,453.407043 221.336609,453.077393 215.396790,453.026703
	C203.593948,452.926025 191.789825,452.978912 179.526855,452.928894
z"/>
</svg>
