<svg version="1.1" id="Layer_1" xmlns="http://www.w3.org/2000/svg" xmlns:xlink="http://www.w3.org/1999/xlink" x="0px" y="0px"
	 width="100%" viewBox="0 0 2000 2000" enable-background="new 0 0 2000 2000" xml:space="preserve">
<path fill="#FAFAF6" opacity="1.000000" stroke="none"
	d="
M1288.000000,2001.000000
	C858.666687,2001.000000 429.833344,2001.000000 1.000000,2001.000000
	C1.000000,1334.333374 1.000000,667.666687 1.000000,1.000000
	C667.666687,1.000000 1334.333374,1.000000 2001.000000,1.000000
	C2001.000000,667.666687 2001.000000,1334.333374 2001.000000,2001.000000
	C1763.500000,2001.000000 1526.000000,2001.000000 1288.000000,2001.000000
M1523.001953,970.486755
	C1522.246948,930.534424 1520.779297,890.617432 1515.050171,851.010132
	C1512.226807,831.490723 1509.553833,811.889771 1505.360840,792.642029
	C1498.855591,762.779419 1490.097290,733.523315 1479.261475,704.864868
	C1468.053467,675.221924 1454.595703,646.690857 1438.804199,619.286133
	C1420.776245,588.000061 1400.076294,558.563416 1375.283813,532.189209
	C1351.975952,507.394348 1327.038940,484.366119 1298.136353,466.192566
	C1259.955322,442.184906 1219.058350,424.011444 1175.937744,410.688354
	C1140.937744,399.874298 1105.416138,391.640015 1068.967896,387.892914
	C1045.506104,385.480865 1021.982117,382.668030 998.446594,382.249115
	C972.553284,381.788269 946.511841,382.753632 920.724792,385.145599
	C894.311584,387.595673 867.938110,391.543732 841.887329,396.591370
	C798.948975,404.911163 757.906250,419.384064 718.428162,438.280243
	C671.339233,460.819427 628.455322,489.476288 590.736389,525.666504
	C567.730713,547.739807 547.590881,572.264526 529.502930,598.474548
	C496.680725,646.035278 472.745667,697.727295 456.705078,753.262085
	C447.980316,783.468506 440.987183,813.991150 436.775421,845.094971
	C434.056305,865.175659 432.036774,885.394592 430.786163,905.618469
	C429.536591,925.824951 428.543884,946.161194 429.402008,966.357056
	C430.642944,995.560913 433.350311,1024.717773 436.050232,1053.837280
	C437.197021,1066.205811 439.744324,1078.459351 441.975769,1090.706665
	C443.216095,1097.514038 446.011810,1099.372314 453.138794,1099.160400
	C461.447571,1098.913452 469.760620,1098.244507 478.060822,1098.389404
	C497.346191,1098.726074 516.701660,1098.556519 535.887756,1100.218872
	C562.196655,1102.498535 588.534546,1105.328857 614.568054,1109.672852
	C645.240479,1114.790894 675.336121,1122.803345 704.962219,1132.417114
	C708.760376,1133.649658 712.816895,1134.086182 718.100830,1135.167236
	C716.043152,1125.407715 714.475586,1117.151123 712.548035,1108.979492
	C705.797424,1080.360840 696.539734,1052.292236 693.579895,1022.846741
	C692.776672,1014.856201 692.076843,1006.809814 694.546448,998.365662
	C704.537292,998.365662 714.023010,998.395081 723.508423,998.361023
	C813.082397,998.039429 902.656555,997.763184 992.230225,997.358948
	C1059.350220,997.056030 1126.469116,996.497253 1193.589233,996.208069
	C1298.888306,995.754395 1404.187866,995.435364 1509.487305,995.045898
	C1516.142212,995.021301 1520.363892,992.260559 1521.851929,985.803589
	C1522.916260,981.185608 1522.667969,976.265137 1523.001953,970.486755
M1026.501465,1457.974243
	C1050.243530,1456.704590 1074.139771,1456.695923 1097.684448,1453.813599
	C1121.569946,1450.889282 1145.467285,1446.481812 1168.720459,1440.314697
	C1211.520020,1428.963867 1252.075195,1411.063843 1293.031250,1394.457153
	C1331.679321,1378.786133 1370.002563,1362.340698 1410.101440,1350.425415
	C1448.729980,1338.947266 1488.165527,1333.686157 1528.277344,1333.332275
	C1542.874390,1333.203369 1557.489014,1335.014282 1572.094849,1335.950195
	C1594.218262,1337.368042 1615.749390,1342.050537 1636.805664,1348.665283
	C1667.646362,1358.353760 1698.158081,1369.102783 1729.071655,1378.543335
	C1775.107666,1392.602051 1821.263428,1406.299316 1867.598877,1419.330933
	C1883.494263,1423.801392 1900.079712,1425.820801 1916.354004,1428.938354
	C1920.684692,1429.767944 1922.987061,1428.760986 1923.192871,1423.518066
	C1923.544434,1414.564453 1925.398071,1405.654053 1925.517212,1396.710693
	C1925.710083,1382.238281 1924.992676,1367.754272 1924.689941,1353.274536
	C1924.315308,1335.350952 1923.746216,1317.427246 1923.708374,1299.502563
	C1923.688843,1290.291382 1924.640747,1281.078003 1925.150635,1271.919678
	C1919.450928,1271.442383 1914.651733,1271.193970 1909.892578,1270.616089
	C1886.093140,1267.725464 1863.288330,1260.648438 1840.833862,1252.788818
	C1808.614746,1241.511230 1776.958008,1228.628296 1744.750122,1217.316284
	C1715.149292,1206.919922 1685.386353,1196.824463 1655.238647,1188.188843
	C1622.249023,1178.739136 1588.022949,1176.256348 1553.874756,1175.195435
	C1515.303711,1173.997437 1476.834473,1175.850098 1438.579468,1181.764893
	C1402.305298,1187.373657 1367.212646,1197.216675 1333.140503,1210.504761
	C1289.669800,1227.458252 1246.608643,1245.458740 1203.242310,1262.684448
	C1182.675659,1270.853882 1162.059326,1279.038452 1141.026611,1285.863892
	C1103.368408,1298.084351 1064.247070,1302.060303 1024.911011,1302.467773
	C1002.187683,1302.703247 979.412231,1300.598755 956.704651,1298.939819
	C932.692993,1297.185669 909.227112,1291.666870 886.784119,1283.442871
	C840.781860,1266.585327 795.285767,1248.345703 749.593994,1230.642456
	C727.899536,1222.236938 706.285278,1213.621826 684.545166,1205.336670
	C631.777832,1185.226685 577.015015,1175.890747 520.653687,1175.049316
	C482.163055,1174.474854 443.801300,1176.523315 405.951447,1183.322266
	C378.462585,1188.260010 351.129913,1194.579102 324.198639,1201.993164
	C280.706848,1213.966187 239.504425,1232.398560 197.879181,1249.515869
	C174.975266,1258.934570 152.027939,1268.146606 127.777718,1273.524292
	C115.993484,1276.137451 104.085129,1278.190796 92.119453,1280.519531
	C91.414078,1290.429443 90.208641,1300.363892 90.096062,1310.310547
	C89.804070,1336.109009 89.753754,1361.916382 90.104187,1387.713257
	C90.250694,1398.498047 91.506264,1409.280273 92.566528,1420.033325
	C92.963654,1424.060913 93.037422,1430.101929 95.411873,1431.459595
	C98.493179,1433.221802 103.733521,1431.308960 108.028374,1430.832520
	C136.876892,1427.632202 165.079376,1420.956421 192.708923,1412.551147
	C255.666031,1393.398438 318.389709,1373.459351 381.010529,1353.227783
	C415.661469,1342.032715 451.080261,1335.710449 487.316681,1334.218994
	C504.715240,1333.502930 522.198914,1334.412720 539.629211,1335.015015
	C564.754211,1335.883179 589.242371,1340.831665 613.403870,1347.513672
	C641.455566,1355.271484 668.388733,1366.127808 695.381592,1376.881470
	C733.816284,1392.193359 772.481506,1406.925415 810.978394,1422.082520
	C856.115601,1439.853638 902.799744,1451.167969 951.148682,1454.845581
	C975.869446,1456.725830 1000.713013,1456.989746 1026.501465,1457.974243
M539.677002,1459.932251
	C534.366272,1459.621216 529.058960,1459.129395 523.744202,1459.027710
	C481.138458,1458.211670 438.564545,1459.221680 396.465607,1466.166504
	C374.695190,1469.757690 352.995331,1474.653809 331.842682,1480.916382
	C296.009033,1491.525513 261.961670,1506.938721 228.351959,1523.186279
	C218.304398,1528.043457 208.642654,1533.698730 198.804138,1538.988281
	C199.808548,1539.973877 200.431000,1540.075073 201.010147,1539.959351
	C236.307907,1532.907593 271.784088,1526.801147 307.797333,1525.408325
	C347.908875,1523.856934 387.889679,1525.416260 427.429565,1533.508667
	C462.026215,1540.589355 495.520172,1551.219482 527.650513,1565.628784
	C559.568115,1579.942505 590.901733,1595.569092 622.377502,1610.854614
	C667.533020,1632.783813 712.378235,1655.364258 757.766174,1676.797729
	C781.575684,1688.041382 805.908447,1698.389160 830.620422,1707.465942
	C883.314636,1726.820679 938.275574,1735.496460 994.135742,1737.728516
	C1019.186340,1738.729370 1044.380127,1737.288208 1069.462891,1736.032959
	C1097.033325,1734.653198 1124.212280,1729.869873 1151.020752,1723.398193
	C1191.584473,1713.605835 1230.183594,1698.286377 1267.624023,1680.081909
	C1325.805298,1651.792847 1383.776855,1623.072632 1441.906128,1594.676025
	C1486.067139,1573.103149 1530.840942,1553.045654 1578.543213,1540.324219
	C1606.257690,1532.933350 1634.325317,1527.806641 1662.986450,1526.099487
	C1689.628418,1524.512817 1716.293457,1524.024170 1742.827637,1527.148560
	C1765.164185,1529.778809 1787.395264,1533.324463 1809.649780,1536.621216
	C1816.392334,1537.620117 1823.057617,1539.140747 1829.758301,1540.422363
	C1828.771973,1538.594238 1827.495361,1537.629150 1826.089844,1536.918945
	C1809.426758,1528.500122 1792.982422,1519.600586 1776.022705,1511.826050
	C1725.719971,1488.766602 1674.207764,1469.344238 1618.552124,1463.923218
	C1596.737305,1461.798462 1574.854858,1459.891235 1552.960815,1459.172729
	C1522.189819,1458.162720 1491.443115,1459.253784 1460.782104,1462.822998
	C1440.706177,1465.159912 1420.694458,1467.992065 1401.658691,1474.644531
	C1360.268433,1489.109375 1319.243408,1504.615234 1277.972656,1519.427124
	C1238.121460,1533.729614 1198.385132,1548.413574 1158.163330,1561.603027
	C1119.351807,1574.330078 1078.799805,1577.240112 1038.260132,1578.733398
	C1008.784363,1579.818970 979.252197,1579.277466 950.040039,1574.863281
	C926.465637,1571.300903 902.548767,1568.284180 879.755127,1561.675415
	C844.643250,1551.494995 810.220947,1538.843506 775.766785,1526.512085
	C736.790649,1512.562378 698.056824,1497.929688 659.301880,1483.369751
	C621.017517,1468.986450 581.429993,1461.449219 539.677002,1459.932251
z"/>
<path fill="#6B1C2E" opacity="1.000000" stroke="none"
	d="
M1523.003662,970.983154
	C1522.667969,976.265137 1522.916260,981.185608 1521.851929,985.803589
	C1520.363892,992.260559 1516.142212,995.021301 1509.487305,995.045898
	C1404.187866,995.435364 1298.888306,995.754395 1193.589233,996.208069
	C1126.469116,996.497253 1059.350220,997.056030 992.230225,997.358948
	C902.656555,997.763184 813.082397,998.039429 723.508423,998.361023
	C714.023010,998.395081 704.537292,998.365662 694.546448,998.365662
	C692.076843,1006.809814 692.776672,1014.856201 693.579895,1022.846741
	C696.539734,1052.292236 705.797424,1080.360840 712.548035,1108.979492
	C714.475586,1117.151123 716.043152,1125.407715 718.100830,1135.167236
	C712.816895,1134.086182 708.760376,1133.649658 704.962219,1132.417114
	C675.336121,1122.803345 645.240479,1114.790894 614.568054,1109.672852
	C588.534546,1105.328857 562.196655,1102.498535 535.887756,1100.218872
	C516.701660,1098.556519 497.346191,1098.726074 478.060822,1098.389404
	C469.760620,1098.244507 461.447571,1098.913452 453.138794,1099.160400
	C446.011810,1099.372314 443.216095,1097.514038 441.975769,1090.706665
	C439.744324,1078.459351 437.197021,1066.205811 436.050232,1053.837280
	C433.350311,1024.717773 430.642944,995.560913 429.402008,966.357056
	C428.543884,946.161194 429.536591,925.824951 430.786163,905.618469
	C432.036774,885.394592 434.056305,865.175659 436.775421,845.094971
	C440.987183,813.991150 447.980316,783.468506 456.705078,753.262085
	C472.745667,697.727295 496.680725,646.035278 529.502930,598.474548
	C547.590881,572.264526 567.730713,547.739807 590.736389,525.666504
	C628.455322,489.476288 671.339233,460.819427 718.428162,438.280243
	C757.906250,419.384064 798.948975,404.911163 841.887329,396.591370
	C867.938110,391.543732 894.311584,387.595673 920.724792,385.145599
	C946.511841,382.753632 972.553284,381.788269 998.446594,382.249115
	C1021.982117,382.668030 1045.506104,385.480865 1068.967896,387.892914
	C1105.416138,391.640015 1140.937744,399.874298 1175.937744,410.688354
	C1219.058350,424.011444 1259.955322,442.184906 1298.136353,466.192566
	C1327.038940,484.366119 1351.975952,507.394348 1375.283813,532.189209
	C1400.076294,558.563416 1420.776245,588.000061 1438.804199,619.286133
	C1454.595703,646.690857 1468.053467,675.221924 1479.261475,704.864868
	C1490.097290,733.523315 1498.855591,762.779419 1505.360840,792.642029
	C1509.553833,811.889771 1512.226807,831.490723 1515.050171,851.010132
	C1520.779297,890.617432 1522.246948,930.534424 1523.003662,970.983154
M784.535278,641.034424
	C764.191467,661.805298 748.672485,685.861084 736.086060,711.943420
	C721.731873,741.689209 711.909424,772.926575 705.153076,805.182495
	C703.494934,813.098633 702.009399,821.050964 700.284424,829.798523
	C884.009521,828.871216 1066.776489,827.948730 1249.769897,827.025085
	C1249.769897,825.439819 1249.948486,824.434937 1249.743774,823.515442
	C1245.054565,802.455261 1241.207520,781.157898 1235.420776,760.401733
	C1222.286987,713.292603 1200.153076,670.868591 1166.469971,634.948181
	C1141.817627,608.658325 1112.513428,589.096802 1078.529785,577.330627
	C1034.802612,562.190918 989.953796,557.142151 943.781250,563.999084
	C882.786499,573.057190 828.862000,596.177490 784.535278,641.034424
z"/>
<path fill="#1C2E4A" opacity="1.000000" stroke="none"
	d="
M1026.001221,1457.979248
	C1000.713013,1456.989746 975.869446,1456.725830 951.148682,1454.845581
	C902.799744,1451.167969 856.115601,1439.853638 810.978394,1422.082520
	C772.481506,1406.925415 733.816284,1392.193359 695.381592,1376.881470
	C668.388733,1366.127808 641.455566,1355.271484 613.403870,1347.513672
	C589.242371,1340.831665 564.754211,1335.883179 539.629211,1335.015015
	C522.198914,1334.412720 504.715240,1333.502930 487.316681,1334.218994
	C451.080261,1335.710449 415.661469,1342.032715 381.010529,1353.227783
	C318.389709,1373.459351 255.666031,1393.398438 192.708923,1412.551147
	C165.079376,1420.956421 136.876892,1427.632202 108.028374,1430.832520
	C103.733521,1431.308960 98.493179,1433.221802 95.411873,1431.459595
	C93.037422,1430.101929 92.963654,1424.060913 92.566528,1420.033325
	C91.506264,1409.280273 90.250694,1398.498047 90.104187,1387.713257
	C89.753754,1361.916382 89.804070,1336.109009 90.096062,1310.310547
	C90.208641,1300.363892 91.414078,1290.429443 92.119453,1280.519531
	C104.085129,1278.190796 115.993484,1276.137451 127.777718,1273.524292
	C152.027939,1268.146606 174.975266,1258.934570 197.879181,1249.515869
	C239.504425,1232.398560 280.706848,1213.966187 324.198639,1201.993164
	C351.129913,1194.579102 378.462585,1188.260010 405.951447,1183.322266
	C443.801300,1176.523315 482.163055,1174.474854 520.653687,1175.049316
	C577.015015,1175.890747 631.777832,1185.226685 684.545166,1205.336670
	C706.285278,1213.621826 727.899536,1222.236938 749.593994,1230.642456
	C795.285767,1248.345703 840.781860,1266.585327 886.784119,1283.442871
	C909.227112,1291.666870 932.692993,1297.185669 956.704651,1298.939819
	C979.412231,1300.598755 1002.187683,1302.703247 1024.911011,1302.467773
	C1064.247070,1302.060303 1103.368408,1298.084351 1141.026611,1285.863892
	C1162.059326,1279.038452 1182.675659,1270.853882 1203.242310,1262.684448
	C1246.608643,1245.458740 1289.669800,1227.458252 1333.140503,1210.504761
	C1367.212646,1197.216675 1402.305298,1187.373657 1438.579468,1181.764893
	C1476.834473,1175.850098 1515.303711,1173.997437 1553.874756,1175.195435
	C1588.022949,1176.256348 1622.249023,1178.739136 1655.238647,1188.188843
	C1685.386353,1196.824463 1715.149292,1206.919922 1744.750122,1217.316284
	C1776.958008,1228.628296 1808.614746,1241.511230 1840.833862,1252.788818
	C1863.288330,1260.648438 1886.093140,1267.725464 1909.892578,1270.616089
	C1914.651733,1271.193970 1919.450928,1271.442383 1925.150635,1271.919678
	C1924.640747,1281.078003 1923.688843,1290.291382 1923.708374,1299.502563
	C1923.746216,1317.427246 1924.315308,1335.350952 1924.689941,1353.274536
	C1924.992676,1367.754272 1925.710083,1382.238281 1925.517212,1396.710693
	C1925.398071,1405.654053 1923.544434,1414.564453 1923.192871,1423.518066
	C1922.987061,1428.760986 1920.684692,1429.767944 1916.354004,1428.938354
	C1900.079712,1425.820801 1883.494263,1423.801392 1867.598877,1419.330933
	C1821.263428,1406.299316 1775.107666,1392.602051 1729.071655,1378.543335
	C1698.158081,1369.102783 1667.646362,1358.353760 1636.805664,1348.665283
	C1615.749390,1342.050537 1594.218262,1337.368042 1572.094849,1335.950195
	C1557.489014,1335.014282 1542.874390,1333.203369 1528.277344,1333.332275
	C1488.165527,1333.686157 1448.729980,1338.947266 1410.101440,1350.425415
	C1370.002563,1362.340698 1331.679321,1378.786133 1293.031250,1394.457153
	C1252.075195,1411.063843 1211.520020,1428.963867 1168.720459,1440.314697
	C1145.467285,1446.481812 1121.569946,1450.889282 1097.684448,1453.813599
	C1074.139771,1456.695923 1050.243530,1456.704590 1026.001221,1457.979248
z"/>
<path fill="#1C2E4A" opacity="1.000000" stroke="none"
	d="
M540.151794,1459.943481
	C581.429993,1461.449219 621.017517,1468.986450 659.301880,1483.369751
	C698.056824,1497.929688 736.790649,1512.562378 775.766785,1526.512085
	C810.220947,1538.843506 844.643250,1551.494995 879.755127,1561.675415
	C902.548767,1568.284180 926.465637,1571.300903 950.040039,1574.863281
	C979.252197,1579.277466 1008.784363,1579.818970 1038.260132,1578.733398
	C1078.799805,1577.240112 1119.351807,1574.330078 1158.163330,1561.603027
	C1198.385132,1548.413574 1238.121460,1533.729614 1277.972656,1519.427124
	C1319.243408,1504.615234 1360.268433,1489.109375 1401.658691,1474.644531
	C1420.694458,1467.992065 1440.706177,1465.159912 1460.782104,1462.822998
	C1491.443115,1459.253784 1522.189819,1458.162720 1552.960815,1459.172729
	C1574.854858,1459.891235 1596.737305,1461.798462 1618.552124,1463.923218
	C1674.207764,1469.344238 1725.719971,1488.766602 1776.022705,1511.826050
	C1792.982422,1519.600586 1809.426758,1528.500122 1826.089844,1536.918945
	C1827.495361,1537.629150 1828.771973,1538.594238 1829.758301,1540.422363
	C1823.057617,1539.140747 1816.392334,1537.620117 1809.649780,1536.621216
	C1787.395264,1533.324463 1765.164185,1529.778809 1742.827637,1527.148560
	C1716.293457,1524.024170 1689.628418,1524.512817 1662.986450,1526.099487
	C1634.325317,1527.806641 1606.257690,1532.933350 1578.543213,1540.324219
	C1530.840942,1553.045654 1486.067139,1573.103149 1441.906128,1594.676025
	C1383.776855,1623.072632 1325.805298,1651.792847 1267.624023,1680.081909
	C1230.183594,1698.286377 1191.584473,1713.605835 1151.020752,1723.398193
	C1124.212280,1729.869873 1097.033325,1734.653198 1069.462891,1736.032959
	C1044.380127,1737.288208 1019.186340,1738.729370 994.135742,1737.728516
	C938.275574,1735.496460 883.314636,1726.820679 830.620422,1707.465942
	C805.908447,1698.389160 781.575684,1688.041382 757.766174,1676.797729
	C712.378235,1655.364258 667.533020,1632.783813 622.377502,1610.854614
	C590.901733,1595.569092 559.568115,1579.942505 527.650513,1565.628784
	C495.520172,1551.219482 462.026215,1540.589355 427.429565,1533.508667
	C387.889679,1525.416260 347.908875,1523.856934 307.797333,1525.408325
	C271.784088,1526.801147 236.307907,1532.907593 201.010147,1539.959351
	C200.431000,1540.075073 199.808548,1539.973877 198.804138,1538.988281
	C208.642654,1533.698730 218.304398,1528.043457 228.351959,1523.186279
	C261.961670,1506.938721 296.009033,1491.525513 331.842682,1480.916382
	C352.995331,1474.653809 374.695190,1469.757690 396.465607,1466.166504
	C438.564545,1459.221680 481.138458,1458.211670 523.744202,1459.027710
	C529.058960,1459.129395 534.366272,1459.621216 540.151794,1459.943481
z"/>
<path fill="#FDFDFD" opacity="1.000000" stroke="none"
	d="
M784.771362,640.770752
	C828.862000,596.177490 882.786499,573.057190 943.781250,563.999084
	C989.953796,557.142151 1034.802612,562.190918 1078.529785,577.330627
	C1112.513428,589.096802 1141.817627,608.658325 1166.469971,634.948181
	C1200.153076,670.868591 1222.286987,713.292603 1235.420776,760.401733
	C1241.207520,781.157898 1245.054565,802.455261 1249.743774,823.515442
	C1249.948486,824.434937 1249.769897,825.439819 1249.769897,827.025085
	C1066.776489,827.948730 884.009521,828.871216 700.284424,829.798523
	C702.009399,821.050964 703.494934,813.098633 705.153076,805.182495
	C711.909424,772.926575 721.731873,741.689209 736.086060,711.943420
	C748.672485,685.861084 764.191467,661.805298 784.771362,640.770752
z"/>
</svg>
