<svg version="1.1" id="Layer_1" xmlns="http://www.w3.org/2000/svg" xmlns:xlink="http://www.w3.org/1999/xlink" x="0px" y="0px"
	 width="100%" viewBox="185 815 2100 460" xml:space="preserve">
<path fill="#1C2E4A" opacity="1.000000" stroke="none"
	d="
M448.382629,1078.213379
	C448.448944,1061.616943 448.375763,1061.728027 434.958649,1052.891968
	C389.639832,1023.046814 344.407928,993.069519 299.042480,963.295532
	C294.982147,960.630676 293.182220,957.775391 293.335327,952.813599
	C293.692413,941.239319 293.449249,929.646545 293.449249,917.537598
	C349.773560,917.537598 405.252533,917.537598 461.728271,917.537598
	C461.728271,938.214539 461.728271,958.368835 461.728271,979.665466
	C484.595520,979.665466 506.485992,979.665466 528.376465,979.665466
	C550.283752,979.665466 572.190979,979.665466 594.433594,979.665466
	C594.433594,1063.276123 594.433594,1146.017334 594.433594,1229.174316
	C459.846649,1229.174316 326.036133,1229.174316 191.398804,1229.174316
	C191.398804,1189.255371 191.398804,1149.782104 191.398804,1109.502686
	C213.373978,1109.502686 235.506210,1109.502686 259.110168,1109.502686
	C259.977570,1120.692017 259.206329,1132.215088 259.326050,1143.685425
	C259.446838,1155.258667 259.352661,1166.834106 259.352661,1178.913086
	C322.593414,1178.913086 384.777191,1178.913086 448.381744,1178.913086
	C448.381744,1145.555298 448.381744,1112.366577 448.382629,1078.213379
M500.601166,1112.965088
	C500.459625,1119.821655 500.318085,1126.678223 500.165039,1134.092041
	C492.848785,1134.092041 486.618286,1134.092041 479.894531,1134.092041
	C479.894531,1149.110596 479.894531,1163.495361 479.894531,1178.450928
	C498.733795,1178.238525 516.812927,1178.783569 534.980591,1178.238770
	C534.980591,1125.383545 534.980591,1073.929443 534.980591,1021.563110
	C523.241211,1021.854675 512.147705,1021.052368 500.602386,1022.190735
	C500.602386,1052.471802 500.602386,1081.721680 500.601166,1112.965088
z"/>
<path fill="#1C2E4A" opacity="1.000000" stroke="none"
	d="
M250.041840,1075.088257
	C230.772858,1075.088257 211.503891,1075.088257 190.769028,1075.088257
	C190.555206,991.273132 190.746704,907.905029 190.557541,824.023438
	C325.915558,824.023438 460.050110,824.023438 594.814209,824.023438
	C594.814209,864.323792 594.814209,904.115845 594.814209,944.596802
	C566.412109,944.596802 538.630981,944.596802 510.163330,944.596802
	C510.163330,923.910339 510.163330,903.687317 510.163330,883.675171
	C502.682343,881.470825 266.164215,880.836304 250.258453,882.921936
	C250.258453,935.652588 250.258453,988.530457 250.191986,1043.268921
	C250.097626,1055.115723 250.069733,1065.102051 250.041840,1075.088257
z"/>
<path fill="#6B1C2E" opacity="1.000000" stroke="none"
	d="
M250.949402,1075.298584
	C250.069733,1065.102051 250.097626,1055.115723 250.264099,1044.151611
	C257.378845,1043.173828 264.355042,1043.173828 272.553619,1043.173828
	C274.248291,1034.346191 273.344025,1025.429077 273.504822,1016.618896
	C273.659851,1008.124390 273.538361,999.624878 273.538361,989.401001
	C287.105103,998.236816 299.057831,1005.928101 310.916260,1013.762146
	C345.933380,1036.895630 380.827209,1060.217651 415.994537,1083.119995
	C421.686340,1086.826782 424.074829,1090.712402 423.882294,1097.589478
	C423.389282,1115.199463 423.717804,1132.832397 423.717804,1151.239746
	C380.425995,1151.239746 337.671570,1151.239746 293.700073,1151.239746
	C293.700073,1126.540405 293.700073,1101.713867 293.700073,1075.509033
	C278.965912,1075.509033 265.411438,1075.509033 250.949402,1075.298584
z"/>
<g transform="translate(668, 1055) scale(1.2) translate(-668, -1025)">
<path fill="#1C2E4A" opacity="1.000000" stroke="none"
	d="
M1143.583984,969.324951
	C1174.276855,963.023926 1196.499756,979.092896 1201.327026,1011.077942
	C1203.318726,1024.275024 1203.180176,1037.666626 1198.895752,1050.646606
	C1188.789307,1081.264160 1158.195801,1095.446777 1128.404175,1083.306641
	C1126.919067,1082.701416 1125.426392,1082.114868 1122.436523,1080.919800
	C1122.436523,1090.299561 1121.806763,1098.792114 1122.658936,1107.133301
	C1123.222534,1112.648193 1127.494629,1116.489624 1132.974976,1118.309326
	C1137.165405,1119.700684 1137.729492,1122.401733 1135.898560,1126.614990
	C1116.861694,1126.614990 1097.679199,1126.614990 1078.218506,1126.614990
	C1076.821899,1123.117676 1076.148926,1120.197998 1080.286011,1118.173340
	C1086.482910,1115.140381 1088.073486,1109.853516 1088.037842,1103.297729
	C1087.865234,1071.639893 1087.958740,1039.980591 1087.895020,1008.321960
	C1087.887695,1004.665649 1087.605469,1000.998840 1087.245605,997.357117
	C1086.774780,992.593933 1085.628296,988.371765 1080.553101,985.987976
	C1078.811279,985.169861 1078.050781,982.262817 1076.150391,979.192932
	C1092.078979,975.146851 1105.755859,969.378357 1121.346680,967.005981
	C1121.689575,973.329041 1121.965576,978.420166 1122.232056,983.333801
	C1129.381470,978.570862 1136.119141,974.082153 1143.583984,969.324951
M1126.691040,1066.098999
	C1138.262939,1075.171997 1151.511963,1073.191650 1159.014404,1060.929688
	C1161.233521,1057.302856 1162.903320,1053.156250 1163.942383,1049.025757
	C1167.076416,1036.567871 1166.976074,1023.917603 1164.468872,1011.382385
	C1163.437866,1006.227295 1161.731567,1001.104492 1159.588501,996.298767
	C1156.454590,989.270813 1150.731323,985.800232 1142.849609,985.996704
	C1134.678955,986.200378 1128.643677,989.902283 1125.592773,997.340820
	C1123.737427,1001.864258 1122.373535,1006.896179 1122.209351,1011.747742
	C1121.747192,1025.392944 1121.741455,1039.071777 1122.175171,1052.717773
	C1122.304688,1056.796143 1124.474487,1060.809692 1126.691040,1066.098999
z"/>
<path fill="#1C2E4A" opacity="1.000000" stroke="none"
	d="
M759.240601,998.771118
	C777.673279,1010.738220 784.701660,1027.258911 781.684814,1048.021606
	C778.933044,1066.959717 764.327087,1081.181641 743.832031,1085.689453
	C727.755127,1089.225586 712.035706,1088.052979 696.767395,1081.985718
	C689.622253,1079.146362 683.117676,1075.347778 676.511047,1083.799194
	C673.488220,1087.666138 668.325867,1085.329102 668.253784,1080.397095
	C668.001831,1063.161011 668.156189,1045.919067 668.156189,1028.332764
	C671.629822,1028.332764 674.227234,1028.332764 676.973999,1028.332764
	C677.566040,1029.046875 678.408447,1029.695312 678.761353,1030.546631
	C681.558533,1037.295532 683.774841,1044.332642 687.090515,1050.809937
	C695.637939,1067.507324 712.477600,1075.615112 730.371399,1072.058350
	C739.020142,1070.339233 746.125183,1066.515625 748.311340,1057.026978
	C750.602600,1047.081787 748.569580,1038.227295 740.037659,1032.171143
	C733.839966,1027.772095 726.953186,1024.296875 720.199585,1020.740479
	C712.849304,1016.869751 704.989563,1013.894165 697.893066,1009.628113
	C678.117798,997.740112 668.227051,980.546875 671.347046,956.981018
	C674.078735,936.347778 689.911438,921.267578 712.253784,918.049561
	C729.103088,915.622742 745.486877,916.916016 760.607971,924.706482
	C765.514587,923.412231 768.729248,917.301880 775.281006,921.589966
	C775.281006,937.553772 775.281006,954.033264 775.281006,971.395020
	C771.700378,971.587769 768.551697,971.757263 765.350098,971.929565
	C762.740662,964.567566 760.837097,957.514160 757.806030,950.984070
	C750.785400,935.858582 734.656128,928.090210 718.980042,931.674988
	C703.382751,935.241638 696.436646,951.596802 704.822998,965.207764
	C709.184692,972.286926 715.974243,976.429932 723.198975,980.080383
	C735.066223,986.076477 746.842529,992.252502 759.240601,998.771118
z"/>
<path fill="#1C2E4A" opacity="1.000000" stroke="none"
	d="
M868.854492,969.510132
	C882.657715,969.494873 895.563538,969.494873 908.667114,969.494873
	C909.558167,973.958557 910.010864,976.809082 905.528687,978.388489
	C889.623962,983.992798 882.630676,998.724976 871.787354,1010.150635
	C877.308594,1019.253296 882.282227,1027.478516 887.281555,1035.688110
	C892.302612,1043.933350 897.792786,1051.931030 902.258240,1060.465698
	C906.587646,1068.740479 914.857056,1074.362549 918.885315,1084.215942
	C915.643005,1084.768066 913.794739,1085.346680 911.943665,1085.355957
	C898.283569,1085.423706 884.621399,1085.474243 870.964050,1085.262939
	C868.940430,1085.231567 865.943481,1084.343384 865.140930,1082.889160
	C863.627441,1080.146851 865.514526,1078.224976 868.443787,1076.965210
	C873.462830,1074.806519 872.878235,1070.714478 870.759521,1066.924194
	C864.470520,1055.673096 857.944031,1044.554810 851.026733,1032.545044
	C842.048584,1041.269287 833.772888,1048.414062 835.268738,1061.761475
	C836.033569,1068.586914 837.496887,1073.943237 843.667786,1077.562256
	C846.400574,1079.164917 846.196472,1079.512939 845.823730,1085.090942
	C827.996765,1085.090942 810.147217,1085.090942 792.436096,1085.090942
	C789.890442,1081.009033 790.946228,1078.654541 794.740479,1076.845459
	C800.550232,1074.075317 802.228699,1069.208618 802.193848,1062.925171
	C801.983154,1024.943359 802.013000,986.960022 802.005798,948.977234
	C802.004456,941.918457 800.969666,935.766418 792.968628,933.030579
	C791.284912,932.454895 790.464355,929.354492 788.526001,926.272522
	C804.744446,922.059570 818.714417,916.073608 835.290771,913.224548
	C836.051880,932.897034 835.331970,951.407532 835.457153,969.889343
	C835.582703,988.420227 835.484741,1006.952576 835.484741,1027.729492
	C838.463623,1024.953857 839.890320,1023.860291 841.031616,1022.523132
	C848.815918,1013.402649 856.543945,1004.234070 864.280334,995.072693
	C865.567993,993.547913 866.940002,992.071350 868.046570,990.420654
	C872.407227,983.916199 871.344788,980.242737 863.643494,978.024536
	C859.186096,976.740662 857.152405,975.198608 859.329773,969.996216
	C862.125000,969.843628 865.041016,969.684509 868.854492,969.510132
z"/>
<path fill="#1C2E4A" opacity="1.000000" stroke="none"
	d="
M1593.967773,934.047119
	C1590.809204,932.750122 1587.751099,932.104675 1588.433228,928.536926
	C1588.687866,927.204346 1589.987915,925.382874 1591.183105,925.024719
	C1604.153198,921.138550 1617.197266,917.499268 1631.413208,913.453430
	C1633.247070,923.799133 1632.267944,933.019714 1632.443115,942.136414
	C1632.615845,951.122925 1632.386841,960.116699 1632.376465,969.107300
	C1632.365601,978.430969 1632.412109,987.754700 1632.421265,997.078369
	C1632.430176,1006.042236 1632.423340,1015.006104 1632.423340,1024.923340
	C1634.353638,1024.053955 1635.712158,1023.866272 1636.356323,1023.087646
	C1644.840454,1012.831177 1653.447632,1002.663574 1661.562134,992.118408
	C1668.069458,983.661743 1667.065186,980.782715 1656.704468,977.667358
	C1652.177734,976.306152 1651.835571,974.105591 1653.201050,970.025879
	C1669.962646,970.025879 1686.505859,970.025879 1703.520752,970.025879
	C1703.638184,972.522705 1703.741333,974.715210 1703.856201,977.155579
	C1686.036621,981.783203 1679.425781,997.989075 1667.755249,1009.393188
	C1669.310425,1012.278809 1670.431030,1014.616333 1671.777832,1016.815186
	C1680.988525,1031.851685 1690.105225,1046.948730 1699.555908,1061.833618
	C1703.571533,1068.158081 1706.522095,1075.570679 1714.693115,1078.401978
	C1715.841675,1078.799927 1715.956299,1082.181763 1716.756470,1084.880371
	C1698.182251,1084.880371 1680.695801,1084.880371 1661.364746,1084.880371
	C1662.735962,1081.759521 1663.075806,1079.055054 1664.600220,1077.853516
	C1670.979736,1072.825195 1671.524292,1072.626099 1667.710693,1066.227417
	C1661.107422,1055.147949 1653.989014,1044.375610 1647.073364,1033.453613
	C1633.206543,1043.319458 1629.037476,1053.891113 1633.431641,1068.828369
	C1634.283569,1071.724609 1636.695068,1074.566284 1639.132080,1076.488892
	C1642.132568,1078.856079 1644.028931,1080.866943 1641.525024,1085.040527
	C1624.824707,1085.040527 1607.936035,1085.040527 1590.618042,1085.040527
	C1588.157227,1081.503906 1588.464844,1078.626587 1592.871338,1076.581177
	C1598.443237,1073.994629 1600.057983,1069.391357 1600.043945,1063.535400
	C1599.951660,1024.908936 1600.000366,986.282227 1600.025635,947.655579
	C1600.029053,942.482361 1599.240234,937.678284 1593.967773,934.047119
z"/>
<path fill="#1C2E4A" opacity="1.000000" stroke="none"
	d="
M1294.403809,1069.557861
	C1278.697388,1047.247681 1277.077515,1023.947021 1287.087402,999.870117
	C1293.186401,985.200073 1304.673462,975.935242 1320.011841,971.602661
	C1331.787720,968.276367 1343.787842,967.823059 1355.601685,970.614685
	C1374.999268,975.198364 1388.062012,986.854309 1392.889160,1006.702881
	C1396.343384,1020.906372 1396.374634,1035.169556 1391.966553,1049.112305
	C1383.342163,1076.390747 1360.592896,1090.671265 1329.762085,1087.382446
	C1316.064697,1085.921509 1303.992554,1080.921143 1294.403809,1069.557861
M1339.188232,1073.383789
	C1348.135498,1073.509521 1353.504150,1068.637573 1356.236328,1060.645508
	C1357.839111,1055.957031 1359.586792,1051.076050 1359.822998,1046.211426
	C1360.355103,1035.253662 1360.660278,1024.195068 1359.739136,1013.289001
	C1359.165161,1006.491699 1356.614136,999.735779 1354.169800,993.255615
	C1351.454956,986.057678 1345.740479,982.204956 1337.904175,982.232910
	C1330.010132,982.261108 1324.581177,986.551941 1321.714355,993.503540
	C1319.583496,998.670959 1317.965820,1004.231201 1317.241577,1009.763306
	C1315.153076,1025.717529 1314.739868,1041.712036 1320.380615,1057.154785
	C1323.361450,1065.315674 1328.146484,1071.947510 1339.188232,1073.383789
z"/>
<path fill="#1C2E4A" opacity="1.000000" stroke="none"
	d="
M1544.854492,969.074646
	C1571.708374,972.358276 1585.841064,996.705139 1580.738647,1024.087769
	C1558.126099,1024.087769 1535.298706,1024.087769 1512.680420,1024.087769
	C1509.814209,1039.135864 1517.075439,1057.256836 1528.264771,1064.436157
	C1541.650513,1073.025024 1558.078125,1070.899780 1576.357788,1057.517334
	C1577.774658,1058.969971 1579.344482,1060.579468 1581.462402,1062.751099
	C1578.552002,1066.500488 1576.632202,1069.576172 1574.142456,1072.086548
	C1552.862183,1093.542603 1513.565674,1093.329102 1493.036255,1071.236572
	C1488.410645,1066.258667 1484.754883,1059.909180 1482.203125,1053.567261
	C1475.892578,1037.883057 1475.839111,1021.638000 1481.358765,1005.706787
	C1488.697388,984.525452 1503.980957,972.549683 1526.091187,969.546265
	C1531.980835,968.746216 1538.028564,969.108215 1544.854492,969.074646
M1515.560425,994.962769
	C1514.159180,999.884766 1512.757935,1004.806702 1511.200562,1010.277466
	C1525.196533,1010.277466 1537.592896,1010.277466 1551.380615,1010.277466
	C1550.235107,1003.858521 1549.981323,998.180603 1548.156494,993.062927
	C1543.851929,980.990356 1529.957886,978.140381 1520.801025,987.155029
	C1518.945068,988.982178 1517.685303,991.414978 1515.560425,994.962769
z"/>
<path fill="#1C2E4A" opacity="1.000000" stroke="none"
	d="
M1793.901245,1024.092529
	C1777.052368,1024.094116 1761.185913,1024.094116 1744.442993,1024.094116
	C1746.069336,1041.874756 1749.309814,1057.622192 1765.370361,1065.926758
	C1780.901855,1073.957764 1795.690308,1070.994629 1808.758423,1058.200439
	C1810.737793,1059.915771 1812.571045,1061.504272 1814.689331,1063.339844
	C1809.494629,1072.657837 1802.145996,1078.711914 1793.136353,1082.605957
	C1754.206421,1099.431763 1713.435303,1075.346924 1711.782104,1032.346313
	C1711.313477,1020.157104 1713.101440,1008.587769 1718.688232,997.546814
	C1734.144409,967.001160 1770.763550,963.732361 1791.882935,973.469727
	C1801.454468,977.882751 1808.111816,985.062134 1811.541748,994.953247
	C1814.724976,1004.133240 1816.176270,1013.575745 1813.979858,1024.091064
	C1807.411743,1024.091064 1801.147827,1024.091064 1793.901245,1024.092529
M1783.182373,998.552551
	C1778.814819,985.686401 1772.487427,980.654602 1762.976685,982.484375
	C1752.366821,984.525574 1744.963379,996.631775 1746.020630,1010.575562
	C1758.464478,1010.575562 1770.923706,1010.575562 1784.192749,1010.575562
	C1783.972168,1006.668884 1783.788574,1003.415649 1783.182373,998.552551
z"/>
<path fill="#25364D" opacity="1.000000" stroke="none"
	d="
M1456.061035,969.784546
	C1463.612061,969.781982 1470.181519,969.781982 1477.241211,969.781982
	C1477.241211,974.400330 1477.241211,977.923889 1477.241211,982.945679
	C1467.186646,982.945679 1457.127808,982.945679 1446.479126,982.945679
	C1446.479126,993.979553 1446.508057,1003.553467 1446.471680,1013.127136
	C1446.428833,1024.443481 1446.227783,1035.760010 1446.277100,1047.075684
	C1446.366699,1067.627686 1453.073853,1073.026855 1472.679443,1068.527222
	C1477.054565,1075.389648 1477.101196,1076.439819 1471.082031,1080.104004
	C1458.568604,1087.721680 1445.140503,1090.280884 1430.908081,1085.828979
	C1423.058716,1083.373901 1417.513306,1077.982056 1415.816895,1069.937134
	C1414.250000,1062.506592 1413.348511,1054.824463 1413.187622,1047.231201
	C1412.813843,1029.599487 1413.088379,1011.954346 1413.038574,994.314819
	C1413.029419,991.068481 1412.730347,987.822998 1412.537231,984.030151
	C1407.486084,983.433167 1402.974731,982.900024 1397.898926,982.300110
	C1397.702148,979.617249 1397.519287,977.125671 1397.306763,974.228455
	C1415.653320,968.513123 1427.640137,956.149231 1435.690308,939.644592
	C1437.810059,935.298401 1440.670532,933.751648 1446.248047,935.712524
	C1446.248047,946.570496 1446.248047,957.715637 1446.248047,969.306824
	C1449.864990,969.503540 1452.472290,969.645325 1456.061035,969.784546
z"/>
<path fill="#1C2E4A" opacity="1.000000" stroke="none"
	d="
M1216.603271,1029.993652
	C1216.670044,1017.010132 1216.730103,1005.025269 1216.818604,993.040588
	C1216.891235,983.203674 1216.837280,983.137939 1206.982910,982.676697
	C1205.000122,982.583801 1203.020386,982.422424 1200.914917,982.284485
	C1198.922119,977.873718 1199.211304,974.950378 1204.377808,972.965149
	C1219.768311,967.051270 1230.196167,955.648865 1237.404053,941.209290
	C1239.793823,936.421814 1242.478027,933.608948 1249.182129,935.750122
	C1249.182129,946.361877 1249.182129,957.198059 1249.182129,969.364563
	C1259.960449,969.364563 1269.701782,969.364563 1279.833252,969.364563
	C1279.833252,974.316711 1279.833252,977.915955 1279.833252,982.725403
	C1270.159790,982.725403 1260.398682,982.725403 1250.232422,982.725403
	C1249.930054,986.126953 1249.567017,988.370911 1249.557007,990.616394
	C1249.475464,1008.927795 1249.449097,1027.239380 1249.437622,1045.551025
	C1249.436157,1047.878906 1249.531372,1050.214111 1249.727783,1052.533569
	C1250.843018,1065.712646 1258.121460,1071.628174 1271.089478,1069.875244
	C1273.036377,1069.612061 1274.943726,1069.055054 1276.800781,1068.649048
	C1280.930176,1075.030762 1281.143433,1075.779663 1276.264526,1078.954346
	C1264.694824,1086.482788 1252.188354,1089.850708 1238.297119,1086.640259
	C1226.039429,1083.807251 1219.079224,1076.058105 1217.873657,1063.889526
	C1216.793579,1052.989136 1216.980591,1041.963013 1216.603271,1029.993652
z"/>
<path fill="#1C2E4A" opacity="1.000000" stroke="none"
	d="
M1865.012939,1053.214844
	C1868.593872,1069.411133 1873.592041,1072.096802 1892.665771,1068.852539
	C1896.517822,1072.768555 1896.384277,1076.216064 1891.517578,1079.236450
	C1880.709229,1085.944336 1869.122925,1089.558594 1856.364380,1087.187866
	C1840.708130,1084.278564 1833.383057,1075.959229 1832.066406,1060.041992
	C1831.710571,1055.739258 1831.810913,1051.393799 1831.807617,1047.067871
	C1831.793945,1029.759033 1831.859009,1012.450134 1831.803955,995.141602
	C1831.792603,991.577087 1831.390747,988.013733 1831.143311,984.038818
	C1826.765991,983.358093 1823.223755,982.807251 1819.088989,982.164185
	C1817.458130,978.052002 1816.837158,974.394287 1822.337158,972.065186
	C1836.866089,965.912476 1846.681030,954.889343 1853.196045,940.891174
	C1855.578491,935.772217 1858.482788,933.599854 1864.844604,935.728455
	C1864.844604,946.492004 1864.844604,957.345947 1864.844604,969.456848
	C1875.455078,969.456848 1885.194214,969.456848 1895.470459,969.456848
	C1895.470459,974.210327 1895.470459,977.727234 1895.470459,982.597046
	C1885.840820,982.597046 1876.112549,982.597046 1865.034790,982.597046
	C1864.978027,1006.710449 1864.924438,1029.513184 1865.012939,1053.214844
z"/>
<path fill="#1C2E4A" opacity="1.000000" stroke="none"
	d="
M984.623352,999.504272
	C981.973389,996.038269 979.850952,993.147949 977.869751,990.450012
	C971.854858,991.976379 969.396484,996.057861 968.227295,1000.550476
	C966.316345,1007.893433 964.304321,1015.388062 963.893738,1022.903931
	C963.187195,1035.838623 963.795532,1048.840332 963.621765,1061.810791
	C963.527832,1068.827515 965.847778,1074.239380 972.609253,1076.925659
	C976.587769,1078.506226 977.546143,1080.897461 975.582642,1085.021973
	C957.549133,1085.021973 939.393677,1085.021973 921.356384,1085.021973
	C919.240662,1081.187988 919.322083,1078.180786 923.319031,1076.527710
	C929.995483,1073.766113 931.427917,1068.176514 931.457764,1061.896851
	C931.549316,1042.604492 931.808838,1023.305237 931.387390,1004.022095
	C931.225281,996.601685 931.360352,988.371948 922.236938,984.663086
	C921.045471,984.178772 920.763306,981.457520 919.687622,978.880249
	C934.341064,975.046936 947.748047,969.561951 963.118652,967.223267
	C963.118652,974.167053 963.118652,979.989075 963.118652,986.673401
	C968.253601,984.964905 969.588440,980.968628 971.869995,978.080444
	C977.313660,971.189392 984.033325,966.779053 992.999817,966.539917
	C1001.929260,966.301880 1008.646240,971.539978 1010.369019,979.843933
	C1012.424927,989.754211 1007.696106,1000.599731 999.821716,1003.432739
	C994.344360,1005.403381 989.347595,1004.233582 984.623352,999.504272
z"/>
<path fill="#1C2E4A" opacity="1.000000" stroke="none"
	d="
M1049.915283,1085.351318
	C1039.936401,1085.358521 1030.940063,1085.376709 1021.943848,1085.351807
	C1021.311646,1085.350098 1020.680359,1085.029907 1019.591980,1084.733398
	C1017.403320,1081.562500 1017.966064,1078.820435 1021.687439,1076.964111
	C1027.192261,1074.218140 1028.923462,1069.565430 1028.932251,1063.815063
	C1028.963623,1043.493286 1029.240601,1023.169312 1029.009766,1002.850891
	C1028.931519,995.961853 1028.664673,988.880493 1020.027588,985.753906
	C1016.335266,984.417358 1016.948059,979.687378 1020.797974,978.454346
	C1032.514648,974.701843 1044.326782,971.244385 1056.130249,967.769165
	C1057.326172,967.417053 1058.715454,967.721863 1061.407837,967.721863
	C1061.609741,971.408020 1061.962158,974.868469 1061.963379,978.329041
	C1061.972778,1005.654785 1061.988892,1032.980957 1061.827393,1060.306030
	C1061.786499,1067.210693 1061.975952,1073.564209 1069.105347,1077.556396
	C1070.681519,1078.438965 1070.975708,1081.610840 1072.538330,1085.352051
	C1064.014526,1085.352051 1057.456177,1085.352051 1049.915283,1085.351318
z"/>
<path fill="#1C2E4A" opacity="1.000000" stroke="none"
	d="
M1040.855591,953.702393
	C1028.854126,949.068604 1025.368896,944.804382 1025.606812,935.888855
	C1025.866211,926.168335 1032.811279,919.280457 1042.848267,918.789246
	C1052.098877,918.336609 1060.326050,924.527283 1061.859863,933.095154
	C1063.566528,942.627747 1058.110962,951.144470 1048.588745,953.443115
	C1046.373047,953.977966 1043.966431,953.721069 1040.855591,953.702393
z"/>
</g>
</svg>
